# xmcd CD database file
#
# Track frame offsets:
#	150
#	20940
#	33595
#
# Disc length: 733 seconds
#
# Revision: 0
# Processed by: cddbd v1.5.1PL0 Copyright (c) Steve Scherf et al.
# Submitted via: CDex 1.51
#
DISCID=2302db03
DTITLE=FadeOut - preDawn
DYEAR=1900
DGENRE=
TTITLE0=瑠璃子
TTITLE1=てんとう虫
TTITLE2=告白 - nikoensis〜追想
EXTD=
EXTT0=
EXTT1=
EXTT2=
PLAYORDER=
